<svg id="visual" viewBox="0 0 1920 1080" width="1920" height="1080" xmlns="http://www.w3.org/2000/svg" xmlns:xlink="http://www.w3.org/1999/xlink" version="1.1"><path d="M0 283L45.7 279.8C91.3 276.7 182.7 270.3 274.2 264.7C365.7 259 457.3 254 548.8 255.2C640.3 256.3 731.7 263.7 823 268.2C914.3 272.7 1005.7 274.3 1097 278.3C1188.3 282.3 1279.7 288.7 1371.2 289.2C1462.7 289.7 1554.3 284.3 1645.8 277.8C1737.3 271.3 1828.7 263.7 1874.3 259.8L1920 256L1920 0L1874.3 0C1828.7 0 1737.3 0 1645.8 0C1554.3 0 1462.7 0 1371.2 0C1279.7 0 1188.3 0 1097 0C1005.7 0 914.3 0 823 0C731.7 0 640.3 0 548.8 0C457.3 0 365.7 0 274.2 0C182.7 0 91.3 0 45.7 0L0 0Z" fill="#009473"></path></svg>