<svg id="visual" viewBox="0 0 1920 1080" width="1920" height="1080" xmlns="http://www.w3.org/2000/svg" xmlns:xlink="http://www.w3.org/1999/xlink" version="1.1"><rect x="0" y="0" width="1920" height="1080" fill="#ffffff"></rect><path d="M0 777L40 767.3C80 757.7 160 738.3 240 733.7C320 729 400 739 480 768C560 797 640 845 720 865.2C800 885.3 880 877.7 960 843.5C1040 809.3 1120 748.7 1200 751.2C1280 753.7 1360 819.3 1440 845.8C1520 872.3 1600 859.7 1680 833.5C1760 807.3 1840 767.7 1880 747.8L1920 728L1920 1081L1880 1081C1840 1081 1760 1081 1680 1081C1600 1081 1520 1081 1440 1081C1360 1081 1280 1081 1200 1081C1120 1081 1040 1081 960 1081C880 1081 800 1081 720 1081C640 1081 560 1081 480 1081C400 1081 320 1081 240 1081C160 1081 80 1081 40 1081L0 1081Z" fill="#ed8a38" stroke-linecap="round" stroke-linejoin="miter"></path></svg>