<?xml version="1.0" standalone="no"?><svg xmlns="http://www.w3.org/2000/svg" viewBox="0 0 1440 320"><path fill="#ff5500" fill-opacity="1" d="M0,0L34.3,5.3C68.6,11,137,21,206,42.7C274.3,64,343,96,411,128C480,160,549,192,617,192C685.7,192,754,160,823,122.7C891.4,85,960,43,1029,53.3C1097.1,64,1166,128,1234,149.3C1302.9,171,1371,149,1406,138.7L1440,128L1440,320L1405.7,320C1371.4,320,1303,320,1234,320C1165.7,320,1097,320,1029,320C960,320,891,320,823,320C754.3,320,686,320,617,320C548.6,320,480,320,411,320C342.9,320,274,320,206,320C137.1,320,69,320,34,320L0,320Z"></path></svg>