<svg id="visual" viewBox="0 0 900 600" width="900" height="600" xmlns="http://www.w3.org/2000/svg" xmlns:xlink="http://www.w3.org/1999/xlink" version="1.1"><rect x="0" y="0" width="900" height="600" fill="#3f4040"></rect><path d="M0 484L21.5 492.2C43 500.3 86 516.7 128.8 515.2C171.7 513.7 214.3 494.3 257.2 496.3C300 498.3 343 521.7 385.8 528.2C428.7 534.7 471.3 524.3 514.2 523.5C557 522.7 600 531.3 642.8 533.8C685.7 536.3 728.3 532.7 771.2 525.2C814 517.7 857 506.3 878.5 500.7L900 495L900 601L878.5 601C857 601 814 601 771.2 601C728.3 601 685.7 601 642.8 601C600 601 557 601 514.2 601C471.3 601 428.7 601 385.8 601C343 601 300 601 257.2 601C214.3 601 171.7 601 128.8 601C86 601 43 601 21.5 601L0 601Z" fill="#4a4944" stroke-linecap="round" stroke-linejoin="miter"></path></svg>